<mxfile>
    <diagram id="c0Sbr53hcYDNOXgjt7Qm" name="Page-1">
        <mxGraphModel dx="2839" dy="1150" grid="1" gridSize="10" guides="1" tooltips="1" connect="1" arrows="1" fold="1" page="1" pageScale="1" pageWidth="827" pageHeight="1169" math="1" shadow="0">
            <root>
                <mxCell id="0"/>
                <mxCell id="1" parent="0"/>
                <mxCell id="4" value="" style="shape=image;verticalLabelPosition=bottom;labelBackgroundColor=#ffffff;verticalAlign=top;aspect=fixed;imageAspect=0;image=data:image/png,iVBORw0KGgoAAAANSUhEUgAAALcAAAAzCAYAAADVT5lRAAAKoElEQVR4Ae2c+Y9VRRbHNTGa+UETdTIzGZe4DTHjOC5xAxdAEBgQtEVQwqoiqIAoiygTBKURULamEZSl2wYEGhpoaNbmjyvzqXCu9erVcm/36/f63a4fbu5S26mq7/nWOafqvVtueeIFla40BqXEQCk7lRQ2ERYYSOBOrF1aDJS2Y4m9E3sncCfmLi0GStuxxNyJuRO4E3OXFgOl7Vhi7sTcCdyJuUuLgdJ2LDF3Yu4E7sTcpcVAaTuWmDsxdwJ3Yu7SYqC0HUvMPeyY+/7xU9Vjk9+un1wJ3OVi7vvG/U9t2tWmHp30Vv1AFCGS258eozb8tFtdu35ddZ3sVn9/dVJ9ZEvgzgfu2StWq2Pdp9XjU2fWZ2JuAuZfk99WR091K9qPzdXfXpmkOn8/qW7cuKE6fj+hALqUgTHP9l7QaaQP9Npz8HBWp9Sd5z7t42XqytWrqr+/X63Y2DqgOvK0U5Gn4iWigc2eFzb7ueM3PcBXr13TYP3qhx/VMy1zgoMNsHrO96oJC5YE8w3V+NBub1+fmr/662j7yHrpypUM4MKSjQb3HU+/rHb9ckjLdf5in3pyxuxoXwY9noOuoEkU4q4Xxqlfu47pAf7gq/+rg0ePZ+zV09urHnljhnOwAT6TsaZ1uzNdxu/O58dW1CnMCFtN+uATZ9lZy1dpRZO85n3bvgMVZWC7i5cu51IwlAATgPoOHT3uNQP+OmaiNhNQhvHzF1e0J/3y3RlP5F+w+pvcF6bJ5StX1db2/WrhmvW5y72xaGkh2TKZs4cmAelA5X1t7od6eX9o4nQ9UH959hW1fvtOdb2/XwEkmMWuWxTi2KnTCmfITve9AxRhTwDWfrjTWT/lUYo5K9fq/CfO9Khx8xYrZLPrvnfMBG1yHDl+QvFsp5vvt/7nRcWKhAlA+/Tvtv+OriqDiYXichU1t2q1EpgK7XseqCk0Yn6sAOBg6DHvL6yaZBMY5vO8Ves0A8L05vfY8+KvN6jT586rM+d7Nbj6Ll8OtguwkK3l0y+C7Yg81B+TAQXZceCgOt59xgtcUULy/HPsn/Z5rG7S//HqZPXdrr26DdoZyuuzDd9H++uU2fmxhCw+akqLdqh2/3rYyYz2OMDaLOndZ895TRa7jLzDlFwrN23JTB+WZEm371MXL9Pgfuqt97x5KAMAASKOrdjSdl3mO1EKLvmGaXPuwsXswsyBLTFhYG8zzX6umxNYS+xJx8t+x+zY39mlJzKPY4adjL0MSIuMjdixsCtOE6ABQCElWd26TUc37n7p9Whbm3a2aVPq3eWronltuddt/SlTNp8J4PtOWbs+eWeVwGfBVKnV9fDE6U5TStrMdc+VqZba1MC6MC+wQzEZnnhzlneyGBNARF7s4SJj9OKs+docYcnH9kU5BDAwuV2XKB3t2Wmud0wX8RNc6UW+0SayhYCLvRvLI+aN9LMWd8KWKEqR/lTlrfrQQPANtSw4hTiHDD5xYN/SLs4b4beYqWDLTAThVM859eDr0/TEwLCAkTZd5gSMh22eV4mQB7lsO/nlOYvUyZ6zFaYFGyYwoC0j76JUyIUt78rDtzzgdrVtmzVF30Oy+2St+l71wQNuNggIhzFx4oUzyN/vblek5a2nUfnuGT1Brdq8VeHcMaH0wRfe8wEoj+yw4d5DHZq1yY8CAWraBOS2OYG9DUvB+HnqF7PnQt+lijIu9gyxn9RDvB8ZfG3nAbevbMO/xwRgaX3v8zUZKMT5EGeESYMxioTKYm3WOn3G0hUKMMDac79cp80S5MYedm0myNKPje4KEfrkk1g3NrSZx3Qs7bAgeWEpwGaW8T0zHygPyskqIflMu3fmsi91PNkEN9EN0x4mNEr/CVlOX7KiIs3Mx6YXY7Vx554szwPjp2XKK+0Py3tMKInBtrbtq4oaPD71HR3D/XbHnkIgiLVZy3SWXNip7dARBXtTN5ELJozLFVajDGlF46ujprRox9FmQtOxNMOCYhoUdVplp88lO/0TFjfBLQws/R7MnS1+M9belGaJMNHS9Rszhqgl8Ia6rrFzP9IrDjbtv6e9m/VhwsIlmtmYYJczJVGFb7btyMrkkRVQ46zaGyK2YylhQext4ts+kPraFPlcslPGBe4tbT9X2ONFbWAzf/vhDmVGdqS9wSiMXdZUTN84RL+HMohjFXI4QuUbmcYyLUuqHaUQUMXA7QOPr1/Lv92st+AhBTuPmDq0KWFBlAG/BXDY+UPvAwF3qL7BppkmkWnSDOa5LqFAgvcspThF4kgyQTBB0UHhZBhMZbJA0WfazWMHS5zaNANEXlHaWoJbbGFfSM90LBlHwpKAFKBLZEXki92HG7hj8jYsPdQwGomtjTPGcivgBjA4ZqGyrjRsXk6tFTlsY+fFvnPVbX/DUQO8LmfNBLdrVYqBx26LdwBKJMl08ux8pmNJKJIdUDOyYuf3vcfkEzPBtbSPmtIy4PGnrE8mtshruQWPw+trK/f3UEZCZb+dODWsDr6H5DXTxOnibn7nWcwSIgWuQYyBx66Pd+qBAEIhPdOxhCi4MGVc9YW+xeQLgfv9lWszZxrlL3JR1idXLR1WZAq15ZOh6nvVh5txbgDAIfmi9qCvvnp/l8EGCHbbMvkwJ2dI7PSBREtwCl2rhFm37VjGYsxmWfNZFNfniEr/XMwt4GY15pxNHrblLHsMcDLerET2apv3nf5AELG2zLEIPvsSiSjA2qH4NZPlOkrpq7Oe30PsRrRC7F6XTOL8FYlzE85zrRJ2/TiRgJoJxP+AROw8oXex7dkQQk5X3jzgtsN5rnrkmwA3xKaSx0UmUk/sbpqLobZi9WTp2YO1M8kAMfi+I6LY4wT27Q0LX331/o7c+AY2O2Ma0K/QuWhMC5jN3uL29UFO6/mY1CxnOpZFlEfqkJ1F5POZQDa4UYgl6zeqL777QS/3KNaIBjdaBAAACIf6+akToR1A8/mmVu084enbMV2ZhEbfmVA5sI8SAip+j7i/o0svfaGDUwLW2NkS2qDOzXva9UrAkpyHicWxHAjL5TkaYIL7pdkLsp/WsbKIWTKiwQ04AS52N5puXizpBzq7FDuUjQZxqH3Ax9a7nIfh6MC+I525HGTMDPrpi36Y5oU5NjzbW+y2jLJ6+MwKO7/5LiZTaFdTNqmQX35uBknRlwRuw0QBIM/NnKvjsiy7DE4edjInpBmf84CoEf0ijh5zRGVlQNEAOJtZ8kt4AbetkHneKevrs9jcRKCK7l1Ifs66iDKG2vLJUPW96oMB7JGcJrax7CYOh7EQc8l1dFbkA8T8FhOwogTY2hCUpA81uPMoSZ48CdxDrIisVDBf0d9QCpBqfSdECbPF5GEnGGfY5XAKuEe8zV3ryWm2+sSpLvrr96Hop4TJ+HsKV2zebBOm9oVo2Wwitr12y3b9y3uznO9Zdh9dG15SRg5mDea3lpzJQS7kC7UlbUbv0QxDzI7DvX1OFnJ23ffDhnrJD2iQA3nq1WbTt9P0HaiD8mEO4Ow0wz9Opfk0/h4vDYYxGAFF4cAXjly94/pF/iswzaU1l2lArAEJADyNVZONVZqwJpuwpHz5fY4E7gTu0mKgtB1LDJef4co6VgnciblLi4HSdqysbJT6lX9FSuBOzF1WDPwBYqwxQT6KwrgAAAAASUVORK5CYII=;" parent="1" vertex="1">
                    <mxGeometry x="70" y="230" width="143.53" height="40" as="geometry"/>
                </mxCell>
                <mxCell id="5" value="极限定义的本质" style="whiteSpace=wrap;html=1;fontSize=24;labelBackgroundColor=#002B36;labelBorderColor=none;fillColor=#002B36;strokeColor=none;fontColor=#9AA2A4;" parent="1" vertex="1">
                    <mxGeometry x="300" y="150" width="192.35" height="60" as="geometry"/>
                </mxCell>
                <mxCell id="6" value="函数极限的三个性质" style="whiteSpace=wrap;html=1;fontSize=24;labelBackgroundColor=#002B36;labelBorderColor=none;fillColor=#002B36;strokeColor=none;fontColor=#9AA2A4;" parent="1" vertex="1">
                    <mxGeometry x="281.17" y="240" width="230" height="60" as="geometry"/>
                </mxCell>
                <mxCell id="10" value="" style="rounded=0;orthogonalLoop=1;jettySize=auto;html=1;shape=link;" parent="1" source="8" target="9" edge="1">
                    <mxGeometry relative="1" as="geometry"/>
                </mxCell>
                <mxCell id="11" value="" style="edgeStyle=none;shape=link;rounded=0;orthogonalLoop=1;jettySize=auto;html=1;" parent="1" source="8" target="9" edge="1">
                    <mxGeometry relative="1" as="geometry"/>
                </mxCell>
                <mxCell id="12" value="" style="edgeStyle=none;shape=link;rounded=0;orthogonalLoop=1;jettySize=auto;html=1;" parent="1" source="8" target="9" edge="1">
                    <mxGeometry relative="1" as="geometry"/>
                </mxCell>
                <mxCell id="13" value="" style="edgeStyle=none;shape=link;rounded=0;orthogonalLoop=1;jettySize=auto;html=1;" parent="1" source="8" target="9" edge="1">
                    <mxGeometry relative="1" as="geometry"/>
                </mxCell>
                <mxCell id="15" value="" style="edgeStyle=none;shape=link;rounded=0;orthogonalLoop=1;jettySize=auto;html=1;" parent="1" source="8" target="14" edge="1">
                    <mxGeometry relative="1" as="geometry"/>
                </mxCell>
                <mxCell id="8" value="极限的计算" style="whiteSpace=wrap;html=1;fontSize=24;labelBackgroundColor=#002B36;labelBorderColor=none;fillColor=#002B36;strokeColor=none;fontColor=#9AA2A4;" parent="1" vertex="1">
                    <mxGeometry x="88.82" y="410" width="192.35" height="60" as="geometry"/>
                </mxCell>
                <mxCell id="9" value="函数极限的计算" style="whiteSpace=wrap;html=1;fontSize=24;labelBackgroundColor=#002B36;labelBorderColor=none;fillColor=#002B36;strokeColor=none;fontColor=#9AA2A4;" parent="1" vertex="1">
                    <mxGeometry x="-19.999999999999986" y="555" width="192.35" height="60" as="geometry"/>
                </mxCell>
                <mxCell id="14" value="数列极限的计算" style="whiteSpace=wrap;html=1;fontSize=24;labelBackgroundColor=#002B36;labelBorderColor=none;fillColor=#002B36;strokeColor=none;fontColor=#9AA2A4;" parent="1" vertex="1">
                    <mxGeometry x="221.00000000000003" y="555" width="192.35" height="60" as="geometry"/>
                </mxCell>
                <mxCell id="16" value="函数的连续" style="whiteSpace=wrap;html=1;fontSize=24;labelBackgroundColor=#002B36;labelBorderColor=none;fillColor=#002B36;strokeColor=none;fontColor=#9AA2A4;" parent="1" vertex="1">
                    <mxGeometry x="-340" y="310" width="192.35" height="60" as="geometry"/>
                </mxCell>
                <mxCell id="17" value="函数的极限" style="whiteSpace=wrap;html=1;fontSize=24;labelBackgroundColor=#002B36;labelBorderColor=none;fillColor=#002B36;strokeColor=none;fontColor=#9AA2A4;" parent="1" vertex="1">
                    <mxGeometry x="-340" y="555" width="192.35" height="60" as="geometry"/>
                </mxCell>
                <mxCell id="18" value="函数的有界" style="whiteSpace=wrap;html=1;fontSize=24;labelBackgroundColor=#002B36;labelBorderColor=none;fillColor=#002B36;strokeColor=none;fontColor=#9AA2A4;" parent="1" vertex="1">
                    <mxGeometry x="-340" y="430" width="192.35" height="60" as="geometry"/>
                </mxCell>
                <mxCell id="20" value="函数的单调性证明" style="whiteSpace=wrap;html=1;fontSize=24;labelBackgroundColor=#002B36;labelBorderColor=none;fillColor=#002B36;strokeColor=none;fontColor=#9AA2A4;" parent="1" vertex="1">
                    <mxGeometry x="-740" y="370" width="280" height="60" as="geometry"/>
                </mxCell>
                <mxCell id="21" value="定积分 &amp;amp; 和式" style="whiteSpace=wrap;html=1;fontSize=24;labelBackgroundColor=#002B36;labelBorderColor=none;fillColor=#002B36;strokeColor=none;fontColor=#9AA2A4;" parent="1" vertex="1">
                    <mxGeometry x="400" y="800" width="280" height="60" as="geometry"/>
                </mxCell>
                <mxCell id="22" value="级数求和理论" style="whiteSpace=wrap;html=1;fontSize=24;labelBackgroundColor=#002B36;labelBorderColor=none;fillColor=#002B36;strokeColor=none;fontColor=#9AA2A4;" parent="1" vertex="1">
                    <mxGeometry x="400" y="890" width="280" height="60" as="geometry"/>
                </mxCell>
                <mxCell id="23" value="七种类型的函数极限&lt;br&gt;&lt;table border=&quot;1&quot; style=&quot;border: 1px solid rgb(154 , 162 , 164) ; border-collapse: collapse&quot;&gt;&lt;tbody&gt;&lt;tr&gt;&lt;td&gt;0/0&lt;/td&gt;&lt;td style=&quot;border-collapse: collapse&quot;&gt;Inf / Inf&lt;/td&gt;&lt;td&gt;0*Inf&lt;/td&gt;&lt;td&gt;Inf-Inf&lt;/td&gt;&lt;td&gt;Inf^0&lt;/td&gt;&lt;td&gt;0^0&lt;/td&gt;&lt;td&gt;1^Inf&lt;/td&gt;&lt;/tr&gt;&lt;/tbody&gt;&lt;/table&gt;" style="whiteSpace=wrap;html=1;fontSize=24;labelBackgroundColor=#002B36;labelBorderColor=none;fillColor=#002B36;strokeColor=none;fontColor=#9AA2A4;" vertex="1" parent="1">
                    <mxGeometry x="-550" y="880" width="450" height="90" as="geometry"/>
                </mxCell>
                <mxCell id="24" value="洛必达法则的使用条件" style="whiteSpace=wrap;html=1;fontSize=24;labelBackgroundColor=#002B36;labelBorderColor=none;fillColor=#002B36;strokeColor=none;fontColor=#9AA2A4;" vertex="1" parent="1">
                    <mxGeometry x="10" y="810" width="300" height="80" as="geometry"/>
                </mxCell>
                <mxCell id="26" value="几个基本函数的图像" style="whiteSpace=wrap;html=1;fontSize=24;labelBackgroundColor=#002B36;labelBorderColor=none;fillColor=#002B36;strokeColor=none;fontColor=#9AA2A4;" vertex="1" parent="1">
                    <mxGeometry x="40" y="960" width="310" height="60" as="geometry"/>
                </mxCell>
            </root>
        </mxGraphModel>
    </diagram>
</mxfile>